<svg id="svg" version="1.1" xmlns="http://www.w3.org/2000/svg" xmlns:xlink="http://www.w3.org/1999/xlink" width="400" height="225" viewBox="0, 0, 400,225"><g id="svgg"><path id="path0" d="M144.615 44.662 C 143.336 45.162,141.899 46.408,141.366 47.480 C 141.174 47.866,141.192 47.859,141.522 47.417 C 142.891 45.579,144.350 44.689,146.304 44.502 L 147.583 44.380 146.500 44.364 C 145.803 44.354,145.131 44.460,144.615 44.662 M147.833 44.616 C 147.971 44.665,148.402 44.843,148.792 45.010 C 149.181 45.178,149.500 45.283,149.500 45.244 C 149.500 45.101,148.170 44.500,147.882 44.513 C 147.651 44.523,147.640 44.547,147.833 44.616 M150.410 46.130 C 151.239 47.002,151.664 47.325,151.067 46.630 C 150.637 46.129,150.475 45.972,149.995 45.588 C 149.768 45.408,149.956 45.652,150.410 46.130 M151.917 48.251 C 152.192 48.831,152.440 49.242,152.468 49.165 C 152.526 49.007,151.740 47.398,151.545 47.278 C 151.474 47.234,151.641 47.672,151.917 48.251 M140.764 48.525 C 140.631 48.842,140.475 49.323,140.417 49.593 C 140.359 49.862,140.502 49.637,140.734 49.092 C 140.966 48.547,141.122 48.067,141.080 48.025 C 141.039 47.983,140.896 48.208,140.764 48.525 M152.563 49.833 C 152.682 50.273,152.888 51.314,153.157 52.833 L 153.319 53.750 153.236 52.572 C 153.152 51.384,152.789 49.724,152.569 49.524 C 152.504 49.465,152.501 49.604,152.563 49.833 M140.104 50.590 C 140.047 50.739,140.006 50.986,140.014 51.139 C 140.022 51.292,140.095 51.195,140.175 50.925 C 140.333 50.399,140.277 50.139,140.104 50.590 M139.906 56.500 C 139.906 59.021,139.930 60.052,139.958 58.792 C 139.986 57.531,139.986 55.469,139.958 54.208 C 139.930 52.948,139.906 53.979,139.906 56.500 M153.444 55.667 C 153.501 56.171,153.574 56.615,153.607 56.653 C 153.748 56.816,153.647 55.227,153.502 55.000 C 153.395 54.833,153.376 55.054,153.444 55.667 M153.940 59.917 C 153.996 60.467,154.070 60.948,154.104 60.986 C 154.237 61.134,154.135 59.565,153.991 59.250 C 153.891 59.030,153.873 59.257,153.940 59.917 M139.875 61.750 C 139.877 62.117,139.911 62.247,139.951 62.040 C 139.991 61.832,139.990 61.532,139.948 61.373 C 139.906 61.214,139.874 61.383,139.875 61.750 M154.282 62.833 C 154.455 64.981,154.653 65.915,154.550 64.097 C 154.498 63.188,154.394 62.250,154.318 62.014 C 154.237 61.758,154.222 62.091,154.282 62.833 M154.699 66.833 C 154.695 67.154,154.751 67.754,154.825 68.167 L 154.958 68.917 154.959 68.083 C 154.960 67.625,154.903 67.025,154.833 66.750 L 154.706 66.250 154.699 66.833 M139.872 69.667 C 139.872 69.987,139.906 70.119,139.948 69.958 C 139.990 69.798,139.990 69.535,139.948 69.375 C 139.906 69.215,139.872 69.346,139.872 69.667 M155.039 70.333 C 155.039 70.654,155.073 70.785,155.115 70.625 C 155.157 70.465,155.157 70.202,155.115 70.042 C 155.073 69.881,155.039 70.012,155.039 70.333 M139.872 71.333 C 139.872 71.654,139.906 71.785,139.948 71.625 C 139.990 71.465,139.990 71.202,139.948 71.042 C 139.906 70.881,139.872 71.012,139.872 71.333 M155.218 71.917 C 155.219 72.467,155.250 72.672,155.287 72.372 C 155.325 72.072,155.324 71.622,155.286 71.372 C 155.248 71.122,155.217 71.367,155.218 71.917 M139.875 73.250 C 139.877 73.617,139.911 73.747,139.951 73.540 C 139.991 73.332,139.990 73.032,139.948 72.873 C 139.906 72.714,139.874 72.883,139.875 73.250 M155.375 73.917 C 155.377 74.283,155.411 74.414,155.451 74.206 C 155.491 73.999,155.490 73.699,155.448 73.540 C 155.406 73.380,155.374 73.550,155.375 73.917 M139.875 75.250 C 139.877 75.617,139.911 75.747,139.951 75.540 C 139.991 75.332,139.990 75.032,139.948 74.873 C 139.906 74.714,139.874 74.883,139.875 75.250 M155.505 75.868 C 155.502 76.025,155.572 76.888,155.660 77.785 C 155.749 78.682,155.868 80.078,155.926 80.887 C 155.984 81.695,156.067 82.321,156.111 82.278 C 156.235 82.154,155.801 76.112,155.647 75.833 C 155.531 75.622,155.509 75.627,155.505 75.868 M139.881 77.250 C 139.882 77.708,139.915 77.876,139.953 77.623 C 139.991 77.369,139.990 76.994,139.951 76.789 C 139.911 76.584,139.880 76.792,139.881 77.250 M139.870 80.611 C 139.850 81.818,139.790 82.943,139.737 83.111 C 139.649 83.391,139.657 83.393,139.826 83.131 C 139.944 82.948,139.991 82.051,139.958 80.631 L 139.906 78.417 139.870 80.611 M139.640 85.375 C 139.608 86.315,139.629 87.383,139.687 87.750 C 139.745 88.123,139.801 87.370,139.812 86.042 C 139.837 83.295,139.725 82.865,139.640 85.375 M156.217 84.667 C 156.217 85.171,156.248 85.377,156.286 85.125 C 156.324 84.873,156.324 84.460,156.286 84.208 C 156.248 83.956,156.217 84.162,156.217 84.667 M156.455 89.333 C 156.505 90.479,156.573 91.448,156.606 91.486 C 156.729 91.627,156.643 88.561,156.506 87.917 C 156.416 87.492,156.397 88.006,156.455 89.333 M139.560 90.000 C 139.560 90.871,139.588 91.227,139.623 90.792 C 139.657 90.356,139.657 89.644,139.623 89.208 C 139.588 88.773,139.560 89.129,139.560 90.000 M177.208 92.329 C 176.819 92.506,176.500 92.687,176.500 92.732 C 176.500 92.808,177.996 92.201,178.153 92.062 C 178.333 91.901,177.847 92.039,177.208 92.329 M156.729 93.917 C 156.729 94.925,156.757 95.316,156.790 94.786 C 156.823 94.255,156.823 93.430,156.789 92.952 C 156.756 92.474,156.729 92.908,156.729 93.917 M139.385 93.417 C 139.386 93.967,139.417 94.172,139.454 93.872 C 139.491 93.572,139.490 93.122,139.452 92.872 C 139.414 92.622,139.384 92.867,139.385 93.417 M173.187 95.193 C 172.532 95.849,172.035 96.424,172.082 96.470 C 172.128 96.517,172.185 96.522,172.208 96.482 C 172.231 96.441,172.773 95.866,173.412 95.204 C 174.051 94.542,174.530 94.000,174.476 94.000 C 174.421 94.000,173.841 94.537,173.187 95.193 M183.917 96.333 C 183.853 96.712,183.835 97.057,183.878 97.100 C 183.921 97.143,184.006 96.865,184.067 96.483 C 184.128 96.101,184.145 95.756,184.105 95.717 C 184.066 95.677,183.981 95.954,183.917 96.333 M139.205 97.000 C 139.205 97.321,139.240 97.452,139.282 97.292 C 139.323 97.131,139.323 96.869,139.282 96.708 C 139.240 96.548,139.205 96.679,139.205 97.000 M156.881 97.583 C 156.882 98.042,156.915 98.209,156.953 97.956 C 156.991 97.703,156.990 97.328,156.951 97.123 C 156.911 96.918,156.880 97.125,156.881 97.583 M170.449 98.667 C 169.842 99.746,169.987 99.746,170.651 98.667 C 170.933 98.208,171.108 97.833,171.040 97.834 C 170.972 97.834,170.706 98.209,170.449 98.667 M139.033 99.271 C 139.015 99.741,138.958 100.378,138.906 100.688 C 138.829 101.142,138.847 101.194,138.997 100.959 C 139.103 100.793,139.157 100.189,139.124 99.543 C 139.073 98.566,139.061 98.530,139.033 99.271 M183.417 99.667 C 183.353 100.046,183.335 100.391,183.378 100.433 C 183.421 100.476,183.506 100.199,183.567 99.817 C 183.628 99.435,183.645 99.090,183.605 99.050 C 183.566 99.010,183.481 99.288,183.417 99.667 M156.872 100.000 C 156.872 100.321,156.906 100.452,156.948 100.292 C 156.990 100.131,156.990 99.869,156.948 99.708 C 156.906 99.548,156.872 99.679,156.872 100.000 M168.860 101.757 C 168.581 102.370,168.634 102.501,168.936 101.944 C 169.077 101.683,169.162 101.439,169.123 101.401 C 169.085 101.363,168.967 101.523,168.860 101.757 M157.065 103.583 C 157.065 104.775,157.092 105.241,157.124 104.618 C 157.156 103.996,157.156 103.021,157.123 102.451 C 157.091 101.882,157.064 102.392,157.065 103.583 M167.700 104.617 C 167.596 104.956,167.538 105.261,167.572 105.294 C 167.606 105.328,167.723 105.083,167.833 104.750 C 167.943 104.417,168.001 104.112,167.961 104.072 C 167.922 104.033,167.804 104.278,167.700 104.617 M182.241 106.407 C 182.178 106.742,182.164 107.053,182.210 107.099 C 182.256 107.145,182.345 106.909,182.407 106.574 C 182.470 106.240,182.484 105.928,182.438 105.883 C 182.392 105.837,182.303 106.073,182.241 106.407 M157.232 108.667 C 157.232 109.904,157.258 110.410,157.290 109.792 C 157.322 109.173,157.322 108.160,157.290 107.542 C 157.258 106.923,157.232 107.429,157.232 108.667 M165.926 111.259 C 165.863 111.594,165.845 111.901,165.886 111.941 C 165.927 111.982,166.011 111.742,166.074 111.407 C 166.137 111.073,166.155 110.766,166.114 110.725 C 166.073 110.684,165.989 110.925,165.926 111.259 M165.423 114.590 C 165.359 115.106,165.340 115.563,165.383 115.605 C 165.425 115.647,165.512 115.260,165.577 114.744 C 165.641 114.228,165.660 113.771,165.617 113.728 C 165.575 113.686,165.488 114.074,165.423 114.590 M165.217 118.000 C 165.217 118.504,165.248 118.710,165.286 118.458 C 165.324 118.206,165.324 117.794,165.286 117.542 C 165.248 117.290,165.217 117.496,165.217 118.000 M179.771 120.354 C 179.632 121.049,179.767 121.184,179.917 120.500 C 179.980 120.212,179.997 119.941,179.955 119.899 C 179.912 119.857,179.829 120.061,179.771 120.354 M163.571 121.208 C 163.223 121.598,162.033 122.874,160.927 124.043 C 159.821 125.213,158.890 126.250,158.857 126.348 C 158.824 126.445,159.306 125.976,159.929 125.304 C 160.551 124.633,161.836 123.277,162.784 122.292 C 163.731 121.306,164.439 120.500,164.356 120.500 C 164.273 120.500,163.920 120.819,163.571 121.208 M179.356 122.833 C 179.341 123.063,179.290 123.438,179.243 123.667 L 179.157 124.083 179.336 123.673 C 179.435 123.447,179.486 123.072,179.449 122.840 L 179.383 122.417 179.356 122.833 M89.239 129.917 C 89.239 132.300,89.263 133.252,89.291 132.032 C 89.320 130.812,89.320 128.862,89.291 127.698 C 89.263 126.535,89.239 127.533,89.239 129.917 M158.186 126.729 C 158.170 127.136,158.204 127.177,158.417 127.000 C 158.691 126.773,158.759 126.590,158.513 126.742 C 158.428 126.795,158.324 126.705,158.282 126.544 C 158.236 126.369,158.198 126.443,158.186 126.729 M178.093 129.759 C 178.030 130.094,178.016 130.405,178.062 130.451 C 178.108 130.497,178.197 130.260,178.259 129.926 C 178.322 129.591,178.336 129.280,178.290 129.234 C 178.244 129.189,178.155 129.425,178.093 129.759 M176.042 136.708 C 175.862 137.198,175.867 137.219,176.088 136.926 C 176.300 136.647,176.425 136.167,176.287 136.167 C 176.261 136.167,176.151 136.410,176.042 136.708 M175.033 139.200 C 174.834 139.673,174.697 140.086,174.729 140.118 C 174.761 140.150,174.953 139.792,175.156 139.322 C 175.358 138.852,175.495 138.439,175.460 138.404 C 175.425 138.369,175.233 138.727,175.033 139.200 M89.390 140.750 C 89.391 141.483,89.420 141.763,89.456 141.371 C 89.491 140.979,89.490 140.379,89.454 140.037 C 89.419 139.696,89.390 140.017,89.390 140.750 M89.542 149.083 C 89.544 149.450,89.578 149.580,89.618 149.373 C 89.658 149.166,89.656 148.866,89.615 148.706 C 89.573 148.547,89.540 148.717,89.542 149.083 M168.675 152.817 C 168.483 153.193,168.358 153.500,168.397 153.500 C 168.522 153.500,169.183 152.294,169.102 152.213 C 169.059 152.170,168.866 152.442,168.675 152.817 M167.000 156.000 C 166.813 156.367,166.697 156.667,166.743 156.667 C 166.789 156.667,166.980 156.367,167.167 156.000 C 167.354 155.633,167.469 155.333,167.423 155.333 C 167.378 155.333,167.187 155.633,167.000 156.000 M165.617 158.458 C 165.579 158.527,165.337 158.958,165.080 159.417 C 164.822 159.875,164.689 160.175,164.784 160.083 C 165.025 159.850,165.884 158.333,165.776 158.333 C 165.727 158.333,165.655 158.390,165.617 158.458 M161.407 165.292 C 161.062 165.819,160.708 166.344,160.620 166.458 C 160.532 166.573,160.503 166.667,160.557 166.667 C 160.639 166.667,161.670 165.213,162.064 164.542 C 162.433 163.912,161.940 164.475,161.407 165.292 M160.000 167.333 C 159.804 167.608,159.681 167.833,159.727 167.833 C 159.773 167.833,159.971 167.608,160.167 167.333 C 160.362 167.058,160.485 166.833,160.439 166.833 C 160.394 166.833,160.196 167.058,160.000 167.333 M158.943 168.875 C 158.417 169.607,158.400 169.655,158.836 169.167 C 159.326 168.617,159.744 168.000,159.625 168.000 C 159.595 168.000,159.289 168.394,158.943 168.875 M156.650 171.875 C 155.410 173.396,155.375 173.443,155.684 173.205 C 155.991 172.969,157.562 171.000,157.443 171.000 C 157.400 171.000,157.043 171.394,156.650 171.875 M97.519 196.269 C 97.509 196.371,97.101 196.501,96.613 196.558 C 93.806 196.888,93.551 197.531,93.324 204.868 C 93.233 207.828,93.088 212.387,93.003 215.000 C 92.918 217.612,92.845 220.931,92.841 222.375 L 92.833 225.000 123.413 225.000 L 153.994 225.000 154.072 224.625 C 154.116 224.419,154.186 222.563,154.230 220.500 C 154.273 218.438,154.394 214.035,154.500 210.716 C 154.606 207.398,154.668 203.633,154.638 202.350 L 154.583 200.018 154.001 199.417 C 153.027 198.414,152.728 198.333,149.959 198.333 C 148.590 198.333,145.471 198.262,143.027 198.174 C 138.754 198.020,133.679 197.855,122.250 197.496 C 119.317 197.404,114.629 197.255,111.833 197.165 C 109.037 197.075,105.025 196.961,102.917 196.910 C 98.263 196.798,97.712 196.742,97.613 196.366 C 97.572 196.211,97.530 196.167,97.519 196.269 " stroke="none" fill="#343434" fill-rule="evenodd"></path><path id="path1" d="M145.727 44.674 C 143.915 44.925,142.056 46.450,141.153 48.426 C 140.118 50.694,140.158 49.945,140.098 68.134 C 140.048 83.591,139.915 89.662,139.510 95.083 C 139.421 96.275,139.300 98.356,139.240 99.708 C 139.131 102.200,138.833 103.143,138.833 100.998 C 138.833 93.857,123.489 93.327,122.588 100.437 C 122.543 100.792,122.466 101.271,122.417 101.500 C 122.325 101.929,122.258 102.612,122.079 104.917 C 121.967 106.368,121.685 107.001,121.638 105.908 C 121.604 105.124,121.593 105.016,121.431 103.833 C 121.044 101.006,119.590 99.223,117.272 98.731 C 115.595 98.376,115.023 98.320,113.417 98.356 C 112.408 98.379,111.358 98.461,111.083 98.538 C 109.546 98.972,108.905 99.205,107.843 99.720 C 106.673 100.286,105.215 102.202,105.092 103.333 C 104.906 105.056,104.781 106.956,104.767 108.302 C 104.744 110.480,104.372 110.542,104.078 108.417 C 103.756 106.091,101.218 104.836,97.278 105.055 C 93.232 105.280,89.856 107.187,89.409 109.499 C 89.024 111.488,89.479 149.213,89.939 153.500 C 90.003 154.096,90.069 154.733,90.085 154.917 C 90.177 155.968,91.005 159.501,91.549 161.167 C 91.684 161.579,92.035 162.704,92.329 163.667 C 92.622 164.629,93.000 165.792,93.167 166.250 C 93.611 167.468,94.990 172.011,95.090 172.583 C 95.142 172.886,95.443 174.146,95.826 175.667 C 96.016 176.425,96.220 177.966,96.398 180.000 C 96.451 180.596,96.574 181.576,96.673 182.178 C 96.772 182.781,96.836 183.343,96.814 183.428 C 96.792 183.514,96.831 184.221,96.900 185.000 C 96.969 185.779,97.055 186.754,97.091 187.167 C 97.127 187.579,97.196 188.629,97.246 189.500 C 97.295 190.371,97.403 191.833,97.486 192.750 C 97.569 193.667,97.643 194.897,97.650 195.485 C 97.658 196.072,97.683 196.571,97.707 196.595 C 97.731 196.618,100.450 196.719,103.750 196.818 C 107.050 196.918,111.962 197.075,114.667 197.167 C 120.780 197.374,128.407 197.618,135.583 197.836 C 138.608 197.927,143.326 198.074,146.067 198.162 C 151.662 198.342,151.271 198.385,151.301 197.582 C 151.314 197.253,151.360 196.925,151.404 196.854 C 151.448 196.782,151.530 196.321,151.587 195.828 C 151.643 195.335,151.722 194.879,151.762 194.814 C 151.802 194.749,151.874 194.371,151.922 193.973 C 152.047 192.936,152.120 192.429,152.263 191.625 C 152.332 191.236,152.406 190.804,152.426 190.667 C 152.509 190.112,152.829 188.186,153.007 187.167 C 153.111 186.571,153.218 185.896,153.245 185.667 C 153.297 185.211,153.544 183.694,153.840 182.000 C 153.945 181.404,154.051 180.729,154.076 180.500 C 154.101 180.271,154.215 179.558,154.329 178.917 C 154.443 178.275,154.565 177.525,154.599 177.250 C 154.633 176.975,154.700 176.587,154.747 176.388 C 154.794 176.189,154.873 175.708,154.922 175.318 C 155.117 173.764,155.293 173.401,156.698 171.643 C 163.274 163.413,170.341 150.653,175.586 137.541 C 176.273 135.823,176.901 134.300,176.982 134.158 C 177.301 133.595,178.267 129.105,178.576 126.750 C 178.624 126.383,178.816 125.258,179.002 124.250 C 179.676 120.610,179.838 119.719,180.174 117.833 C 180.362 116.779,180.627 115.279,180.762 114.500 C 181.277 111.544,181.487 110.361,181.812 108.583 C 181.997 107.575,182.271 106.000,182.422 105.083 C 182.573 104.167,182.798 102.817,182.923 102.083 C 184.078 95.317,184.145 94.776,183.908 94.087 C 182.487 89.953,175.594 91.816,171.591 97.417 C 168.075 102.335,165.406 111.441,165.338 118.750 L 165.328 119.750 162.789 122.422 C 161.393 123.892,159.788 125.594,159.223 126.205 L 158.195 127.315 158.093 125.949 C 157.977 124.395,157.866 122.410,157.747 119.750 C 157.702 118.742,157.587 117.035,157.490 115.957 C 157.394 114.879,157.350 113.941,157.392 113.873 C 157.433 113.806,157.405 113.112,157.330 112.333 C 157.137 110.353,157.028 107.955,156.833 101.417 C 156.681 96.304,156.313 88.090,156.090 84.833 C 155.605 77.746,154.837 68.785,154.340 64.417 C 154.257 63.683,153.994 61.321,153.756 59.167 C 153.054 52.804,152.844 51.314,152.481 50.083 C 151.368 46.315,148.789 44.249,145.727 44.674 " stroke="none" fill="#dbab83" fill-rule="evenodd"></path><path id="path2" d="M150.333 46.250 C 150.644 46.571,150.936 46.833,150.982 46.833 C 151.028 46.833,150.811 46.571,150.500 46.250 C 150.189 45.929,149.897 45.667,149.851 45.667 C 149.805 45.667,150.022 45.929,150.333 46.250 M140.065 57.917 C 140.065 59.108,140.092 59.574,140.124 58.951 C 140.156 58.329,140.156 57.354,140.123 56.785 C 140.091 56.216,140.064 56.725,140.065 57.917 M155.039 71.667 C 155.039 71.987,155.073 72.119,155.115 71.958 C 155.157 71.798,155.157 71.535,155.115 71.375 C 155.073 71.215,155.039 71.346,155.039 71.667 M140.057 78.917 C 140.058 79.650,140.087 79.929,140.122 79.537 C 140.157 79.145,140.157 78.545,140.121 78.204 C 140.085 77.863,140.057 78.183,140.057 78.917 M139.889 85.000 C 139.889 85.688,139.919 85.969,139.955 85.625 C 139.991 85.281,139.991 84.719,139.955 84.375 C 139.919 84.031,139.889 84.313,139.889 85.000 M156.209 87.083 C 156.211 87.450,156.245 87.580,156.285 87.373 C 156.324 87.166,156.323 86.866,156.281 86.706 C 156.239 86.547,156.207 86.717,156.209 87.083 M156.379 90.333 C 156.379 90.746,156.411 90.915,156.451 90.708 C 156.491 90.502,156.491 90.165,156.451 89.958 C 156.411 89.752,156.379 89.921,156.379 90.333 M139.709 90.417 C 139.711 90.783,139.745 90.914,139.785 90.706 C 139.824 90.499,139.823 90.199,139.781 90.040 C 139.739 89.880,139.707 90.050,139.709 90.417 M139.550 93.167 C 139.550 93.671,139.581 93.877,139.619 93.625 C 139.658 93.373,139.658 92.960,139.619 92.708 C 139.581 92.456,139.550 92.662,139.550 93.167 M156.542 93.750 C 156.544 94.117,156.578 94.247,156.618 94.040 C 156.658 93.832,156.656 93.532,156.615 93.373 C 156.573 93.214,156.540 93.383,156.542 93.750 M173.161 95.458 L 172.250 96.417 173.208 95.506 C 174.099 94.659,174.243 94.500,174.119 94.500 C 174.093 94.500,173.662 94.931,173.161 95.458 M156.720 97.333 C 156.720 97.929,156.750 98.173,156.787 97.875 C 156.824 97.577,156.824 97.090,156.787 96.792 C 156.750 96.494,156.720 96.737,156.720 97.333 M113.544 98.286 C 113.797 98.325,114.172 98.324,114.377 98.284 C 114.582 98.244,114.375 98.213,113.917 98.214 C 113.458 98.216,113.291 98.248,113.544 98.286 M139.214 99.083 C 139.216 99.542,139.248 99.709,139.286 99.456 C 139.325 99.203,139.324 98.828,139.284 98.623 C 139.244 98.418,139.213 98.625,139.214 99.083 M138.922 101.716 C 138.851 101.880,138.839 102.061,138.896 102.118 C 139.065 102.288,139.202 102.050,139.124 101.721 C 139.055 101.430,139.046 101.430,138.922 101.716 M156.890 103.583 C 156.891 104.317,156.920 104.596,156.956 104.204 C 156.991 103.812,156.990 103.212,156.954 102.871 C 156.919 102.529,156.890 102.850,156.890 103.583 M157.039 107.500 C 157.039 107.821,157.073 107.952,157.115 107.792 C 157.157 107.631,157.157 107.369,157.115 107.208 C 157.073 107.048,157.039 107.179,157.039 107.500 M89.231 113.417 C 89.232 114.608,89.258 115.074,89.290 114.451 C 89.323 113.829,89.322 112.854,89.290 112.285 C 89.257 111.716,89.231 112.225,89.231 113.417 M157.375 114.417 C 157.377 114.783,157.411 114.914,157.451 114.706 C 157.491 114.499,157.490 114.199,157.448 114.040 C 157.406 113.880,157.374 114.050,157.375 114.417 M165.375 116.583 C 165.377 116.950,165.411 117.080,165.451 116.873 C 165.491 116.666,165.490 116.366,165.448 116.206 C 165.406 116.047,165.374 116.217,165.375 116.583 M89.232 118.750 C 89.233 120.033,89.259 120.536,89.291 119.868 C 89.322 119.199,89.322 118.149,89.290 117.534 C 89.258 116.920,89.232 117.467,89.232 118.750 M162.246 122.875 L 161.083 124.083 162.292 122.921 C 163.414 121.842,163.576 121.667,163.454 121.667 C 163.428 121.667,162.885 122.210,162.246 122.875 M89.385 136.917 C 89.386 137.467,89.417 137.672,89.454 137.372 C 89.491 137.072,89.490 136.622,89.452 136.372 C 89.414 136.122,89.384 136.367,89.385 136.917 M97.545 194.333 C 97.545 194.746,97.578 194.915,97.618 194.708 C 97.657 194.502,97.657 194.165,97.618 193.958 C 97.578 193.752,97.545 193.921,97.545 194.333 M99.958 196.784 C 100.165 196.824,100.502 196.824,100.708 196.784 C 100.915 196.745,100.746 196.712,100.333 196.712 C 99.921 196.712,99.752 196.745,99.958 196.784 M105.708 196.948 C 105.869 196.990,106.131 196.990,106.292 196.948 C 106.452 196.906,106.321 196.872,106.000 196.872 C 105.679 196.872,105.548 196.906,105.708 196.948 M110.958 197.121 C 111.256 197.158,111.744 197.158,112.042 197.121 C 112.340 197.084,112.096 197.053,111.500 197.053 C 110.904 197.053,110.660 197.084,110.958 197.121 M115.875 197.282 C 116.035 197.323,116.298 197.323,116.458 197.282 C 116.619 197.240,116.487 197.205,116.167 197.205 C 115.846 197.205,115.715 197.240,115.875 197.282 M121.625 197.451 C 121.831 197.491,122.169 197.491,122.375 197.451 C 122.581 197.411,122.412 197.379,122.000 197.379 C 121.587 197.379,121.419 197.411,121.625 197.451 M126.377 197.620 C 126.631 197.658,127.006 197.657,127.211 197.617 C 127.416 197.578,127.208 197.546,126.750 197.548 C 126.292 197.549,126.124 197.581,126.377 197.620 M132.042 197.782 C 132.202 197.823,132.465 197.823,132.625 197.782 C 132.785 197.740,132.654 197.705,132.333 197.705 C 132.012 197.705,131.881 197.740,132.042 197.782 M137.461 197.954 C 137.761 197.991,138.211 197.990,138.461 197.952 C 138.712 197.914,138.467 197.884,137.917 197.885 C 137.367 197.886,137.162 197.917,137.461 197.954 M142.294 198.118 C 142.501 198.158,142.801 198.156,142.960 198.115 C 143.120 198.073,142.950 198.040,142.583 198.042 C 142.217 198.044,142.086 198.078,142.294 198.118 M148.044 198.286 C 148.297 198.325,148.672 198.324,148.877 198.284 C 149.082 198.244,148.875 198.213,148.417 198.214 C 147.958 198.216,147.791 198.248,148.044 198.286 " stroke="none" fill="#96765c" fill-rule="evenodd"></path><path id="path3" d="M140.048 76.917 C 140.049 77.375,140.081 77.543,140.120 77.289 C 140.158 77.036,140.157 76.661,140.117 76.456 C 140.078 76.251,140.046 76.458,140.048 76.917 " stroke="none" fill="#82644c" fill-rule="evenodd"></path><path id="path4" d="M140.062 63.333 C 140.062 64.296,140.089 64.690,140.123 64.208 C 140.157 63.727,140.157 62.940,140.123 62.458 C 140.089 61.977,140.062 62.371,140.062 63.333 M140.042 65.917 C 140.044 66.283,140.078 66.414,140.118 66.206 C 140.158 65.999,140.156 65.699,140.115 65.540 C 140.073 65.380,140.040 65.550,140.042 65.917 M140.039 67.667 C 140.039 67.987,140.073 68.119,140.115 67.958 C 140.157 67.798,140.157 67.535,140.115 67.375 C 140.073 67.215,140.039 67.346,140.039 67.667 M140.071 72.583 C 140.071 74.600,140.095 75.402,140.125 74.366 C 140.154 73.329,140.154 71.679,140.124 70.699 C 140.095 69.719,140.071 70.567,140.071 72.583 M139.709 88.917 C 139.711 89.283,139.745 89.414,139.785 89.206 C 139.824 88.999,139.823 88.699,139.781 88.540 C 139.739 88.380,139.707 88.550,139.709 88.917 M156.542 92.083 C 156.544 92.450,156.578 92.580,156.618 92.373 C 156.658 92.166,156.656 91.866,156.615 91.706 C 156.573 91.547,156.540 91.717,156.542 92.083 M179.875 91.786 C 180.127 91.824,180.540 91.824,180.792 91.786 C 181.044 91.748,180.838 91.717,180.333 91.717 C 179.829 91.717,179.623 91.748,179.875 91.786 M156.872 101.000 C 156.872 101.321,156.906 101.452,156.948 101.292 C 156.990 101.131,156.990 100.869,156.948 100.708 C 156.906 100.548,156.872 100.679,156.872 101.000 M157.042 106.250 C 157.044 106.617,157.078 106.747,157.118 106.540 C 157.158 106.332,157.156 106.032,157.115 105.873 C 157.073 105.714,157.040 105.883,157.042 106.250 M89.223 124.500 C 89.223 125.188,89.252 125.469,89.288 125.125 C 89.324 124.781,89.324 124.219,89.288 123.875 C 89.252 123.531,89.223 123.813,89.223 124.500 M89.375 138.917 C 89.377 139.283,89.411 139.414,89.451 139.206 C 89.491 138.999,89.490 138.699,89.448 138.540 C 89.406 138.380,89.374 138.550,89.375 138.917 M98.542 196.782 C 98.702 196.823,98.965 196.823,99.125 196.782 C 99.285 196.740,99.154 196.705,98.833 196.705 C 98.513 196.705,98.381 196.740,98.542 196.782 M108.958 197.118 C 109.165 197.157,109.502 197.157,109.708 197.118 C 109.915 197.078,109.746 197.045,109.333 197.045 C 108.921 197.045,108.752 197.078,108.958 197.118 M119.708 197.453 C 119.960 197.491,120.373 197.491,120.625 197.453 C 120.877 197.415,120.671 197.383,120.167 197.383 C 119.662 197.383,119.456 197.415,119.708 197.453 M124.875 197.615 C 125.035 197.657,125.298 197.657,125.458 197.615 C 125.619 197.573,125.487 197.539,125.167 197.539 C 124.846 197.539,124.715 197.573,124.875 197.615 M135.292 197.951 C 135.498 197.991,135.835 197.991,136.042 197.951 C 136.248 197.911,136.079 197.879,135.667 197.879 C 135.254 197.879,135.085 197.911,135.292 197.951 M146.042 198.286 C 146.294 198.324,146.706 198.324,146.958 198.286 C 147.210 198.248,147.004 198.217,146.500 198.217 C 145.996 198.217,145.790 198.248,146.042 198.286 " stroke="none" fill="#7c5c4c" fill-rule="evenodd"></path></g></svg>